<svg xmlns="http://www.w3.org/2000/svg" viewBox="0 0 261.49 93.87"><g id="Layer_2" data-name="Layer 2"><g id="Layer_1-2" data-name="Layer 1"><path d="M85.49,22.73h6.6c3.64,0,6.43,1.35,6.43,5.21,0,3-1.67,4.32-3.16,4.8v0c1.94.45,3.66,1.78,3.66,5.1,0,4-3,5.7-6.56,5.7h-7Zm6.37,8.82c2.29,0,3.5-.7,3.5-2.9s-1-3-3.44-3H88.76v5.89Zm.43,9.22c2.48,0,3.55-1.1,3.55-3.33,0-2.45-1.41-3.21-3.86-3.21H88.76v6.54Z"/><path d="M102.18,22.73h11.3V25.8h-8v5.36h5.79v3H105.5V40.6h8.41v3H102.18Z"/><path d="M118.44,43.59h-3.1l6.09-21h3.19l6.09,21h-3.33l-1.35-5h-6.21Zm6.12-10.43c-.65-2.34-1.16-4.09-1.58-6.06h-.06c-.45,2-1,3.72-1.6,6l-.71,2.57h4.63Z"/><path d="M133,36.57V22.73h3.32V36.26c0,3.18,1,4.74,3.58,4.74s3.56-1.56,3.56-4.68V22.73h3.18V36.51c0,4.54-2,7.44-6.79,7.44S133,41.14,133,36.57Z"/><path d="M154.13,25.8h-5.19V22.73h13.67V25.8h-5.16V43.59h-3.32Z"/><path d="M165.32,22.73h3.32V43.59h-3.32Z"/><path d="M172.7,22.73h11.11V25.8H176v5.64h5.63v3H176v9.16H172.7Z"/><path d="M186.17,36.57V22.73h3.33V36.26c0,3.18,1,4.74,3.58,4.74s3.55-1.56,3.55-4.68V22.73h3.19V36.51c0,4.54-2,7.44-6.8,7.44S186.17,41.14,186.17,36.57Z"/><path d="M203.51,22.73h3.32V40.6h8v3H203.51Z"/><path d="M85.49,50h5c5.7,0,9.22,2.71,9.22,10.38s-3.61,10.48-9.22,10.48h-5Zm5.39,17.9c3.89,0,5.49-2.05,5.49-7.52,0-5.3-1.6-7.33-5.52-7.33h-2V67.87Z"/><path d="M102.77,50h11.31v3.08h-8V58.4h5.78v3H106.1v6.46h8.4v3H102.77Z"/><path d="M116.24,66.18,119,64.8c.93,2,2.39,3.5,4.59,3.5s3.35-1,3.35-2.71c0-2.08-1.88-3-4-3.94-2.7-1.25-5.86-2.54-5.86-6.57,0-3.27,2.62-5.5,6.14-5.5s5.47,1.94,6.66,4.54l-2.79,1.44c-.82-1.75-1.92-3.05-3.92-3.05-1.72,0-2.82.93-2.82,2.43,0,2,1.8,3,3.83,3.91,2.74,1.24,6,2.6,6,6.63,0,3.1-2.4,5.72-6.6,5.72C119.85,71.2,117.6,69.14,116.24,66.18Z"/><path d="M137.16,53.05H132V50h13.67v3.08h-5.15V70.83h-3.33Z"/><path d="M148.35,50h3.32V70.83h-3.32Z"/><path d="M155.73,50h3.58L165,61.05c.7,1.36,1.07,2.12,1.77,3.64h.06V50h3V70.83h-3.08l-6.2-11.78c-.67-1.32-1-2-1.75-3.52h-.05v15.3h-3Z"/><path d="M175.43,70.83h-3.1l6.09-20.94h3.19l6.09,20.94h-3.33l-1.35-5h-6.2Zm6.12-10.43c-.65-2.34-1.16-4.08-1.58-6.06h-.05c-.46,2-1,3.72-1.61,6l-.71,2.56h4.63Z"/><path d="M194,53.05h-5.19V50h13.67v3.08h-5.16V70.83H194Z"/><path d="M205.2,50h3.32V70.83H205.2Z"/><path d="M211.74,60.4c0-7.24,3.46-10.82,7.92-10.82s7.89,3.58,7.89,10.82-3.47,10.83-7.89,10.83S211.74,67.65,211.74,60.4Zm12.46,0c0-5.07-1.67-7.75-4.54-7.75s-4.6,2.68-4.6,7.75,1.7,7.81,4.6,7.81S224.2,65.48,224.2,60.4Z"/><path d="M230.59,50h3.58l5.67,11.08c.7,1.36,1.07,2.12,1.77,3.64h.06V50h3V70.83h-3.08l-6.2-11.78c-.67-1.32-1-2-1.74-3.52h-.06v15.3h-3Z"/><path d="M247.5,66.18l2.8-1.38c.93,2,2.39,3.5,4.59,3.5s3.35-1,3.35-2.71c0-2.08-1.88-3-4-3.94-2.7-1.25-5.86-2.54-5.86-6.57,0-3.27,2.62-5.5,6.14-5.5s5.47,1.94,6.66,4.54l-2.8,1.44c-.81-1.75-1.91-3.05-3.91-3.05-1.72,0-2.82.93-2.82,2.43,0,2,1.8,3,3.83,3.91,2.74,1.24,6,2.6,6,6.63,0,3.1-2.4,5.72-6.6,5.72C251.11,71.2,248.86,69.14,247.5,66.18Z"/><path d="M61.91,66.58a15,15,0,0,1-15,15H19.06V55.43H14.42V86.15H46.88A19.47,19.47,0,0,0,66.46,66.58c0-10.57-8.42-19-19.58-18.84H0v4.55H46.88C55.45,52.29,61.91,58.43,61.91,66.58Z"/><path d="M47.62,40H0v4.56H47.62a22,22,0,0,1,22,22c0,12.32-10.08,22.74-22,22.74H11.18V55.43H6.57V93.87H47.62c14.4,0,26.56-12.5,26.56-27.29A26.6,26.6,0,0,0,47.62,40Z"/><path d="M14.42,7.72h30A18.09,18.09,0,0,1,57.39,38.48h0c-.82-.29-1.66-.54-2.51-.76s-1.61-.35-2.43-.51l-.54-.08.46-.32a13.54,13.54,0,0,0-7.91-24.55H19.06V36.83H14.45Z"/><path d="M6.57,36.83h4.61V4.55h34c11.14,0,20.55,9.75,20.55,21.29a20.55,20.55,0,0,1-5.4,13.86,28.44,28.44,0,0,1,4,2.3,25.07,25.07,0,0,0,5.93-16.16C70.29,11.83,58.8,0,45.19,0H6.57Z"/></g></g></svg>