<svg viewBox="0 0 75 94" version="1.1" xmlns="http://www.w3.org/2000/svg" xmlns:xlink="http://www.w3.org/1999/xlink">
    <g id="Page-1" stroke="none" stroke-width="1" fill="none" fill-rule="evenodd">
        <g id="logo_white" fill="#000" fill-rule="nonzero">
            <path d="M61.91,66.58 C61.91,74.8642712 55.1942712,81.58 46.91,81.58 L19.06,81.58 L19.06,55.43 L14.42,55.43 L14.42,86.1503126 L46.88,86.1503126 C52.0801754,86.179449 57.0760331,84.1273962 60.7541104,80.4511973 C64.4321878,76.7749985 66.4867925,71.7801897 66.4602588,66.58 C66.4602588,56.01 58.04,47.58 46.88,47.74 L0,47.74 L0,52.29 L46.88,52.29 C55.45,52.29 61.91,58.43 61.91,66.58 Z" id="Path"></path>
            <path d="M47.62,40 L0,40 L0,44.56 L47.62,44.56 C53.4547628,44.56 59.0505489,46.8778505 63.1763492,51.0036508 C67.3021495,55.1294511 69.62,60.7252372 69.62,66.56 C69.62,78.88 59.54,89.3 47.62,89.3 L11.18,89.3 L11.18,55.43 L6.57,55.43 L6.57,93.87 L47.62,93.87 C62.02,93.87 74.18,81.37 74.18,66.58 C74.1689885,51.9126411 62.2873464,40.0220521 47.62,40 L47.62,40 Z" id="Path"></path>
            <path d="M14.42,7.71990601 L44.42,7.71990601 C51.7161476,7.6965616 58.312169,12.0584957 61.1469243,18.7814773 C63.9816795,25.5044589 62.5001906,33.2722873 57.39,38.48 L57.39,38.48 C56.57,38.19 55.73,37.94 54.88,37.72 C54.03,37.5 53.27,37.37 52.45,37.21 L51.91,37.13 L52.37,36.81 C57.1585101,33.3823577 59.1824859,27.2526932 57.3765271,21.6475996 C55.5705682,16.0425061 50.3488371,12.2474054 44.46,12.26 L19.06,12.26 L19.06,36.83 L14.45,36.83 L14.42,7.71990601 Z" id="Path"></path>
            <path d="M6.57,36.83 L11.18,36.83 L11.18,4.55 L45.18,4.55 C56.32,4.55 65.73,14.3 65.73,25.84 C65.7238714,30.9722182 63.7975688,35.9163948 60.33,39.7 C61.7234273,40.3570626 63.0611621,41.1262602 64.33,42 C68.1519832,37.4820437 70.2525544,31.7577216 70.2600586,25.84 C70.29,11.83 58.8,0 45.19,0 L6.57,0 L6.57,36.83 Z" id="Path"></path>
        </g>
    </g>
</svg>