<svg xmlns="http://www.w3.org/2000/svg" width="800" height="800" viewBox="0 0 800 800">
  <path id="Color_Fill_1" data-name="Color Fill 1" class="cls-1" d="M289,107c51.123-.251,82.773,17.734,103,48a133.288,133.288,0,0,1,12,23c1.194,2.969.652,10.274,3,12H770c5.4,3.63,12.958,3.161,17,8,11.99,14.352,6.455,37.528-9,44-8.8,3.685-24.184,2-36,2H407c-10.116,49.69-70.883,100.761-138,79-9.713-3.149-20.863-7.6-29-13-15.408-10.221-28.573-25.8-38-42-1.889-3.246-6.464-22.852-8-24H30c-7.557-5.186-15.171-5.194-20-13-9.125-14.749,1.878-34.769,13-39,13.373-5.088,37.192-2,54-2H194c7.143-33.918,32.268-61.595,61-74,8.111-3.5,18.475-5.759,27-8C284.812,107.261,287.237,108.108,289,107Zm1,54c-3.707,2.375-8.815,2.152-13,4-14.791,6.531-27.251,21.515-32,38-11.95,41.48,32.368,82.654,72,69,29.309-10.1,54.226-49.349,32-85C337.632,168.765,320.63,160.555,290,161ZM461,611H109c-20.7,0-78.644,3.567-90-4-5.045-3.361-7.626-8.656-10-15-1.031-2.755-3.293-7.794-2-13,1.842-7.419,7.007-15.761,13-19,7.657-4.139,20.586-3,32-3H461c6.885-58.395,85.659-102.779,152-74,21.44,9.3,39.316,27.76,51,47,4.594,7.565,4.848,18.616,10,26,5.091,3.175,19.765,1,27,1h70c5.554,3.8,13.029,3.737,17,9,9.609,12.735,5.7,33.267-6,41-7.811,5.164-22.285,4-35,4H674l-1,1c-0.53,7.316-3.769,11.863-6,17-14.038,32.327-37.106,50.271-73,61-10.943,3.271-30.592,6.717-45,3C508.886,682.652,466.543,654.279,461,611Zm103-84c-4.127,2.459-11.537,1.145-16,3-14.721,6.12-27.889,18.312-34,33-16.435,39.5,21.192,87.266,64,77,20.628-4.947,35.715-18.693,43-37C637.255,562.153,601.042,527.025,564,527Z"/>
</svg>
